<?xml version="1.0" standalone="no"?>
<!DOCTYPE svg PUBLIC "-//W3C//DTD SVG 20010904//EN"
 "http://www.w3.org/TR/2001/REC-SVG-20010904/DTD/svg10.dtd">
<svg version="1.0" xmlns="http://www.w3.org/2000/svg"
 width="1450.000000pt" height="815.000000pt" viewBox="0 0 1450.000000 815.000000"
 preserveAspectRatio="xMidYMid meet">

<g transform="translate(0.000000,815.000000) scale(0.100000,-0.100000)"
fill="#000000" stroke="none">
<path d="M0 4075 l0 -4075 7250 0 7250 0 0 4075 0 4075 -7250 0 -7250 0 0
-4075z m6325 2420 l-7 -86 -19 36 c-11 20 -17 40 -14 45 4 6 1 10 -5 10 -8 0
-9 11 -5 31 6 28 5 30 -8 18 -8 -8 -13 -17 -11 -21 2 -4 -1 -10 -6 -13 -12 -7
-4 -64 11 -79 5 -6 9 -15 9 -20 0 -6 -5 -4 -10 4 -5 8 -10 10 -10 4 0 -6 7
-18 17 -25 9 -8 44 -57 79 -109 34 -52 72 -105 83 -117 12 -12 21 -27 21 -32
0 -6 9 -16 20 -23 11 -7 20 -18 20 -24 0 -14 56 -64 64 -57 3 4 6 -1 6 -10 0
-9 5 -19 12 -23 7 -5 8 -3 3 6 -5 9 -4 11 3 6 7 -4 12 -13 12 -20 0 -15 46
-57 54 -49 3 4 6 0 6 -9 0 -8 12 -25 27 -39 14 -13 23 -18 18 -10 -4 7 17 -11
46 -41 30 -29 72 -69 94 -87 22 -19 61 -54 86 -78 36 -35 52 -44 68 -38 12 3
18 11 15 17 -4 6 8 2 26 -8 18 -10 34 -25 37 -31 3 -7 10 -10 16 -6 6 4 7 1 3
-6 -5 -8 -3 -11 5 -10 8 2 32 -5 54 -16 l39 -19 -38 -8 c-28 -6 -43 -4 -59 8
-14 10 -16 15 -7 13 26 -3 44 1 36 8 -14 15 -49 9 -54 -9 -3 -14 -12 -17 -37
-14 -30 4 -41 -4 -139 -103 -59 -59 -104 -110 -100 -114 4 -3 14 2 23 11 26
28 8 1 -33 -50 -21 -27 -43 -48 -50 -48 -6 0 -1 8 10 18 12 9 27 28 34 42 8
17 1 13 -23 -15 -21 -23 -32 -44 -27 -49 8 -8 -63 -126 -76 -126 -5 0 20 41
54 88 14 17 20 32 14 32 -6 0 -29 -31 -51 -69 -22 -38 -47 -71 -55 -74 -8 -3
-22 -30 -31 -59 -9 -29 -19 -60 -22 -68 -3 -8 2 -6 11 5 16 19 16 19 5 -7 -7
-15 -15 -25 -19 -23 -5 3 -11 -2 -14 -11 -3 -8 -2 -12 4 -9 5 3 7 -1 4 -9 -3
-8 -12 -17 -20 -20 -8 -3 -14 -10 -14 -16 0 -6 4 -8 10 -5 6 3 7 -1 4 -9 -3
-9 -10 -13 -15 -10 -5 3 -6 -2 -3 -10 3 -9 2 -16 -4 -16 -5 0 -13 -7 -16 -16
-3 -8 -2 -13 3 -10 5 4 7 -3 4 -14 -3 -11 -9 -17 -14 -14 -5 3 -6 -2 -3 -10 4
-9 1 -16 -6 -16 -7 0 -10 -7 -6 -15 3 -8 1 -15 -4 -15 -5 0 -7 -7 -4 -15 4 -8
1 -15 -6 -15 -6 0 -8 -5 -5 -10 4 -6 2 -16 -3 -23 -5 -7 -10 -19 -10 -27 -1
-17 -31 -153 -35 -156 -8 -8 -397 1031 -407 1086 -13 76 -74 323 -89 363 -9
24 -4 37 53 124 77 121 161 264 213 363 22 43 44 74 52 72 7 -1 9 2 6 8 -9 15
32 59 70 75 17 8 32 12 34 10 2 -2 0 -43 -4 -90z m1929 64 c29 -23 89 -110
106 -153 15 -39 107 -196 193 -329 69 -107 70 -109 60 -150 -6 -23 -24 -96
-41 -162 -17 -66 -40 -169 -52 -230 -17 -89 -52 -191 -187 -540 -92 -236 -174
-450 -183 -474 -19 -50 -20 -49 -40 53 -7 33 -19 78 -27 100 -18 50 -25 76
-26 98 -1 9 -6 14 -11 11 -5 -4 -7 1 -3 10 3 8 -1 21 -9 28 -8 6 -13 17 -11
23 3 6 -3 20 -12 30 -9 11 -10 16 -4 12 9 -5 11 -2 7 8 -3 9 -10 16 -16 16 -5
0 -6 5 -3 10 3 6 2 10 -4 10 -6 0 -7 7 -4 17 4 10 2 14 -4 10 -6 -4 -14 0 -17
9 -3 8 -2 12 4 9 18 -11 11 4 -12 26 -13 12 -17 19 -11 15 9 -5 11 -2 7 8 -3
9 -10 14 -14 11 -4 -3 -11 2 -14 11 -3 8 -2 12 4 9 19 -12 10 4 -17 31 -16 15
-19 21 -9 13 18 -13 18 -13 6 8 -8 12 -18 19 -24 16 -5 -4 -7 1 -3 11 4 9 3
14 -2 11 -5 -3 -12 -1 -16 5 -3 5 -2 10 4 10 6 0 2 13 -7 30 -9 16 -20 30 -25
30 -4 0 0 -12 9 -27 l16 -28 -21 25 c-11 14 -18 32 -15 42 3 9 -1 20 -7 24 -8
4 -9 3 -5 -4 14 -22 -5 -12 -29 16 -15 17 -20 31 -14 38 6 7 3 16 -8 25 -11 9
-14 10 -9 2 20 -34 -15 -6 -71 56 -75 83 -83 100 -13 30 28 -28 50 -55 50 -60
0 -6 5 -7 12 -3 7 4 8 3 4 -4 -4 -7 -5 -12 -2 -12 22 0 5 26 -53 84 -48 48
-71 64 -76 55 -6 -8 -4 -10 5 -4 9 5 11 4 6 -4 -9 -14 -36 3 -36 23 0 6 5 4
10 -4 5 -8 10 -11 10 -6 0 5 -16 26 -35 47 -19 22 -35 44 -35 50 0 5 -4 7 -10
4 -5 -3 -10 1 -10 10 0 9 4 14 8 11 9 -5 149 121 282 254 41 41 66 65 56 52
-43 -50 -5 -16 84 75 52 54 86 91 75 83 -11 -8 2 8 28 36 27 28 81 98 121 155
39 57 91 123 114 146 39 38 41 43 31 67 -7 14 -17 23 -23 19 -6 -3 -8 -3 -4 2
13 14 -11 45 -29 38 -13 -5 -15 -2 -10 11 4 9 3 15 -1 12 -5 -3 -9 -24 -10
-48 0 -31 2 -37 7 -23 5 11 7 23 4 28 -2 4 1 7 7 7 13 0 6 -29 -16 -70 -13
-25 -13 -25 -16 15 -7 130 -8 128 36 94z m44 -103 c0 -14 -11 -35 -25 -48 -18
-17 -22 -18 -17 -5 3 9 10 17 14 17 4 0 8 6 7 13 -1 29 4 47 12 47 5 0 9 -11
9 -24z m-378 -479 c0 -2 -10 -12 -22 -23 l-23 -19 19 23 c18 21 26 27 26 19z
m-146 -135 c-97 -90 -137 -122 -144 -117 -4 3 -11 -2 -14 -11 -3 -9 -11 -12
-18 -8 -8 5 -9 2 -5 -9 7 -18 -8 -31 -35 -33 -38 -3 -42 -6 -18 -14 24 -8 24
-8 3 -9 -36 -2 -77 -101 -42 -101 4 0 6 8 3 18 -5 14 -4 15 5 2 9 -13 11 -13
11 0 0 13 2 13 9 0 6 -8 7 -18 5 -22 -3 -4 1 -8 9 -8 20 0 41 -26 27 -35 -5
-3 -13 1 -16 9 -3 9 -10 13 -15 10 -5 -3 -9 0 -9 5 0 6 -3 10 -7 10 -25 -4
-43 3 -43 16 0 8 -5 15 -11 15 -5 0 -7 -5 -3 -12 5 -7 2 -9 -8 -6 -9 4 -37 10
-63 13 -29 5 -42 11 -34 15 7 5 19 6 27 2 10 -3 13 -1 8 6 -3 6 3 16 14 22 11
6 20 8 20 5 0 -3 8 3 18 13 21 19 145 96 150 93 2 -1 10 6 18 16 7 10 14 15
14 11 0 -5 8 0 19 10 10 9 35 31 57 47 21 17 54 45 73 62 20 18 38 32 41 32 3
0 -18 -21 -46 -47z m-1029 18 c10 -11 16 -20 13 -20 -3 0 -13 9 -23 20 -10 11
-16 20 -13 20 3 0 13 -9 23 -20z m113 -89 c39 -29 72 -57 72 -63 0 -5 -5 -8
-11 -6 -6 2 -10 7 -9 12 1 5 -14 18 -33 30 -51 32 -107 80 -107 91 0 6 3 6 8
-1 4 -6 40 -34 80 -63z m130 -104 c2 -8 -3 -15 -10 -13 -24 3 -37 16 -35 36 1
17 3 18 22 6 11 -7 21 -20 23 -29z m552 -47 c0 -5 -4 -10 -10 -10 -5 0 -10 5
-10 10 0 6 5 10 10 10 6 0 10 -4 10 -10z m-515 -73 c11 1 31 5 45 9 19 5 22 4
14 -5 -6 -7 -25 -13 -42 -13 -17 -1 -29 -4 -27 -8 2 -4 -10 -14 -28 -22 -18
-9 -58 -39 -89 -67 -31 -28 -58 -51 -61 -51 -10 0 88 94 98 95 6 1 9 6 8 12
-1 6 8 19 20 29 18 16 20 16 8 2 -14 -19 -5 -24 17 -10 7 5 10 17 6 28 -3 11
-2 15 3 9 4 -6 17 -10 28 -8z m377 -31 c45 -7 93 -25 86 -31 -3 -3 -29 0 -59
6 -115 22 -184 24 -308 8 -41 -5 -76 -7 -78 -5 -5 5 36 14 91 21 22 3 42 8 45
11 6 6 169 -1 223 -10z m-580 -308 l6 -66 -39 -4 c-22 -2 -39 0 -39 4 0 5 9 8
19 8 37 0 50 10 42 33 -6 17 -7 69 -2 96 3 17 9 -14 13 -71z m898 60 c-1 -1
14 -20 34 -42 28 -29 34 -41 26 -51 -7 -8 -7 -15 -1 -19 5 -3 11 -2 13 4 2 6
9 1 16 -11 11 -17 11 -20 0 -14 -7 4 -3 -2 8 -12 26 -21 78 -113 65 -113 -11
0 -9 -19 2 -37 5 -9 2 -13 -9 -13 -10 0 -14 3 -11 7 4 3 -1 12 -11 20 -16 12
-15 13 3 6 18 -6 18 -5 6 10 -7 9 -17 14 -22 12 -4 -3 -13 4 -19 16 -7 12 -8
19 -2 15 5 -3 12 0 15 8 4 9 -5 19 -24 26 -38 16 -32 24 7 10 l29 -10 -25 19
c-13 11 -27 18 -31 15 -4 -2 -19 8 -33 21 -37 34 -43 31 -13 -5 14 -16 49 -68
77 -115 28 -47 56 -85 61 -85 5 0 8 -3 7 -7 -4 -17 14 -53 24 -47 6 4 8 3 5
-3 -9 -15 43 -114 55 -106 6 3 8 1 5 -4 -7 -10 57 -163 67 -163 7 0 -5 32 -17
48 -5 7 -7 15 -4 19 4 3 14 -11 22 -32 9 -20 14 -40 11 -43 -3 -3 0 -12 7 -20
10 -13 9 -14 -2 -7 -10 6 -9 0 3 -21 9 -16 27 -62 40 -103 13 -40 26 -70 29
-65 3 5 41 99 85 209 44 110 93 229 110 265 16 36 35 82 41 103 7 20 14 37 17
37 2 0 2 -35 0 -77 -2 -47 0 -66 4 -48 l8 30 0 -30 c0 -16 -4 -43 -8 -60 l-8
-30 -2 30 c-2 26 -3 24 -11 -15 -5 -25 -7 -52 -5 -60 2 -8 4 -2 5 14 0 16 4
27 7 24 3 -3 0 -44 -7 -89 -9 -63 -14 -79 -21 -64 -5 13 -7 6 -3 -23 4 -31 2
-41 -6 -36 -8 4 -9 -3 -4 -26 5 -25 4 -31 -5 -25 -10 6 -12 1 -7 -23 4 -17 2
-34 -3 -37 -5 -3 -9 -18 -8 -33 1 -42 -59 -338 -88 -432 -14 -47 -27 -95 -27
-107 -1 -12 -5 -19 -11 -16 -5 4 -7 -1 -3 -11 4 -10 2 -38 -5 -64 l-12 -47 -8
35 c-4 19 -5 46 -2 58 3 17 1 21 -7 16 -7 -4 -10 -2 -7 7 3 8 -1 30 -8 50 -7
20 -22 124 -34 230 -31 280 -63 408 -115 454 -13 11 -75 94 -139 185 -64 91
-130 184 -147 207 l-32 42 17 83 c9 46 20 84 24 86 4 1 5 23 3 50 -2 26 0 44
4 40 4 -3 6 -8 5 -10z m-924 -63 c1 -41 -2 -45 -23 -45 -13 0 -26 -7 -30 -16
-4 -12 -8 -13 -14 -3 -10 16 29 72 43 62 7 -4 9 0 5 9 -4 11 8 38 18 38 0 0 0
-20 1 -45z m639 29 c13 -9 59 -59 102 -112 42 -54 100 -124 128 -157 50 -60
207 -267 239 -316 l17 -26 -78 24 c-43 13 -91 30 -108 36 -16 7 -33 11 -38 9
-4 -1 -6 2 -5 6 3 9 -98 116 -110 118 -18 2 -42 17 -42 26 0 5 5 6 10 3 17
-11 11 13 -7 27 -10 7 -31 32 -47 56 -16 23 -33 42 -37 42 -5 0 -9 5 -9 11 0
6 -14 30 -32 53 -45 59 -48 62 -48 49 0 -6 7 -18 15 -26 23 -24 -12 -43 -42
-24 -19 12 -16 25 7 29 12 2 17 7 12 15 -6 9 -19 8 -57 -4 -28 -9 -52 -19 -55
-22 -6 -7 -12 -8 -132 -17 -49 -4 -88 -11 -88 -15 0 -5 8 -6 18 -3 16 5 16 5
-1 -6 -9 -6 -15 -15 -12 -21 9 -13 93 -11 97 3 3 9 15 9 47 0 46 -11 81 0 81
25 0 7 7 13 16 13 8 0 12 -4 9 -10 -3 -5 -2 -10 3 -10 6 0 12 7 16 15 4 11 -2
15 -21 15 -32 0 -28 5 10 14 19 4 26 3 22 -4 -3 -5 0 -10 7 -11 10 0 10 -2 1
-6 -7 -2 -13 -12 -13 -21 0 -12 3 -13 8 -5 4 7 17 11 29 10 15 -1 19 -5 13
-13 -6 -6 -7 -13 -4 -16 3 -3 0 -9 -7 -14 -9 -5 -11 -1 -7 14 6 22 -6 30 -16
13 -3 -5 -14 -7 -24 -5 -9 3 -28 0 -42 -5 -23 -10 -22 -11 10 -6 26 4 30 3 15
-4 -11 -5 -76 -9 -145 -10 -80 -1 -145 -7 -182 -17 -53 -15 -58 -15 -75 1 -16
17 -16 17 2 11 12 -3 32 2 50 14 36 24 34 24 -30 4 -27 -8 -80 -15 -117 -15
-39 1 -68 -3 -68 -9 0 -6 12 -11 28 -11 15 -1 41 -2 59 -4 18 -1 30 2 27 6 -3
5 2 9 10 9 9 0 16 -5 16 -11 0 -5 5 -7 12 -3 7 5 8 3 3 -6 -6 -9 -26 -11 -76
-6 -77 7 -101 14 -93 28 3 5 0 9 -7 7 -32 -4 -51 3 -74 26 -32 31 -33 59 -2
52 12 -3 47 -2 77 2 l55 9 -72 1 c-76 1 -93 10 -67 35 12 13 38 16 120 16
l104 0 78 45 c92 53 130 63 298 79 179 18 192 18 219 0z m-1345 -142 c-8 -15
-9 -15 -9 3 0 11 -3 34 -6 50 l-6 30 15 -33 c11 -23 13 -39 6 -50z m2344 -27
c-5 -33 -9 -43 -16 -34 -6 10 -7 4 -4 -16 4 -16 2 -50 -2 -75 l-8 -45 -5 38
c-3 20 -1 37 3 37 5 0 4 8 -1 19 -8 13 -4 33 12 74 12 31 23 54 25 52 2 -2 0
-24 -4 -50z m-2300 -66 c-3 -5 -9 -7 -13 -5 -4 3 -8 -1 -8 -8 0 -7 9 -19 19
-25 17 -11 18 -10 8 9 -7 13 -7 20 0 20 9 0 11 -6 14 -42 1 -7 8 -19 16 -26
13 -12 13 -13 0 -6 -10 5 -9 0 4 -14 11 -12 16 -22 12 -22 -3 0 9 -30 28 -67
18 -38 66 -149 106 -248 39 -99 75 -183 79 -188 6 -6 35 66 47 116 1 4 3 10 4
15 5 12 8 26 9 45 0 10 5 16 10 13 12 -8 31 40 21 50 -5 5 -2 30 7 58 9 28 19
44 21 38 2 -7 -4 -32 -13 -55 -22 -56 0 -33 30 30 13 28 19 56 15 63 -11 17
-22 -3 -14 -27 5 -16 4 -16 -5 -1 -7 11 -8 25 -2 41 12 31 27 41 37 26 4 -8 3
-9 -4 -5 -14 8 -15 -3 -4 -21 5 -8 20 11 42 55 18 37 33 70 32 75 -1 4 2 7 7
7 5 0 11 7 15 15 3 10 -1 15 -11 15 -9 0 -13 -3 -10 -7 4 -3 -5 -15 -20 -25
-21 -13 -23 -18 -11 -18 15 0 16 -4 6 -25 -8 -19 -14 -22 -20 -13 -4 7 -8 10
-8 6 0 -3 -3 -15 -6 -25 -5 -15 -4 -15 5 -3 7 9 11 10 11 3 0 -17 -14 -23 -29
-14 -10 7 -8 17 8 48 11 22 27 43 36 46 8 4 15 12 15 18 0 8 -4 8 -15 -1 -13
-11 -14 -10 -9 4 3 9 10 16 16 16 5 0 6 5 3 10 -3 6 -2 10 4 10 5 0 11 -3 13
-8 7 -16 118 -42 180 -42 l65 0 28 -104 27 -105 -35 -43 c-19 -24 -52 -70 -73
-103 -38 -59 -39 -61 -41 -170 -1 -60 -8 -147 -15 -193 -23 -154 27 -349 111
-437 l39 -40 -128 -480 c-145 -543 -162 -601 -175 -598 -18 4 -25 67 -9 84 16
18 19 59 3 59 -5 0 -7 5 -4 10 4 6 11 7 17 4 6 -4 8 1 5 12 -4 11 -9 31 -13
46 -3 16 -11 25 -17 21 -6 -4 -8 0 -4 11 4 10 1 19 -8 22 -8 4 -15 10 -15 16
0 5 4 7 9 4 5 -4 7 3 4 14 -6 23 -14 25 -31 8 -15 -15 -19 -11 -27 35 -5 26
-4 37 5 37 7 0 10 -7 6 -17 -4 -10 -4 -14 0 -10 4 4 13 -1 21 -11 13 -15 13
-15 7 7 -9 33 -33 91 -38 91 -2 0 -3 -11 -1 -25 1 -14 -2 -25 -7 -25 -5 0 -8
8 -7 18 1 9 1 20 0 25 0 4 0 9 2 10 1 2 -3 10 -10 18 -6 8 -14 32 -17 54 -5
34 -5 36 4 16 6 -14 12 -34 15 -45 2 -12 4 -23 5 -26 2 -3 2 -9 1 -13 -1 -5 3
-6 8 -3 6 4 1 31 -11 66 -11 34 -24 57 -30 54 -6 -4 -8 2 -3 15 4 12 2 27 -3
34 -30 38 -257 1016 -255 1097 1 14 -3 30 -8 36 -5 6 -6 20 -2 29 4 13 3 16
-5 11 -8 -5 -12 1 -12 16 0 13 -3 39 -6 58 -4 19 -6 60 -6 90 0 37 -2 47 -7
30 -5 -20 -9 -12 -19 41 -14 76 -15 103 -2 74 8 -19 9 -19 9 3 1 12 -5 22 -12
22 -7 0 -14 12 -15 28 -1 21 0 23 8 12 13 -20 13 -6 -1 80 -7 38 -16 67 -21
64 -4 -3 -6 -9 -4 -13 10 -15 15 -64 6 -55 -12 13 -31 161 -24 190 6 24 7 23
25 -16 11 -23 16 -46 13 -51z m1681 63 c-3 -3 -11 0 -18 7 -9 10 -8 11 6 5 10
-3 15 -9 12 -12z m-570 -42 c-14 -16 -27 -19 -66 -15 -27 3 -50 1 -54 -5 -3
-5 -21 -9 -38 -9 -18 1 -24 3 -14 6 9 2 15 9 12 14 -4 5 1 9 10 9 9 0 13 -4
10 -10 -3 -5 -2 -10 4 -10 5 0 13 5 17 11 4 7 21 9 40 6 20 -4 32 -2 29 3 -3
6 1 7 9 4 8 -3 23 -1 33 5 26 15 28 13 8 -9z m178 -20 c-3 -3 -8 1 -10 8 -3 8
-11 5 -24 -10 -23 -29 -25 -15 -2 16 16 21 19 22 30 7 6 -9 9 -18 6 -21z m12
-30 c-2 -3 12 -16 31 -30 18 -14 34 -30 34 -37 0 -6 9 -19 21 -27 21 -14 19
-36 -4 -36 -8 0 -8 3 2 9 9 6 10 11 2 15 -6 4 -11 2 -11 -4 0 -8 -6 -8 -20 0
-11 6 -20 17 -20 24 0 9 -8 12 -22 9 -18 -4 -20 -2 -8 6 8 5 12 12 9 16 -3 3
-14 -5 -25 -17 -10 -13 -15 -20 -10 -16 5 4 15 3 23 -3 7 -6 13 -8 13 -5 0 4
6 1 13 -5 7 -7 12 -25 11 -41 -1 -16 0 -27 4 -24 3 3 14 -2 24 -11 19 -17 19
-16 13 10 -5 19 -3 27 6 27 27 0 42 -17 34 -36 -8 -17 -9 -17 -12 4 -3 12 -9
20 -14 17 -5 -4 -5 -14 2 -27 7 -13 7 -18 1 -14 -6 3 -14 1 -18 -5 -5 -9 1
-10 20 -5 18 4 25 3 21 -3 -3 -7 0 -8 9 -5 9 3 16 2 16 -3 0 -19 -13 -21 -48
-6 -54 22 -80 49 -75 77 4 17 -1 27 -16 35 -17 10 -20 9 -15 -4 3 -8 10 -12
15 -9 5 3 9 -3 9 -13 0 -14 -8 -10 -31 17 -41 48 -71 107 -59 115 6 3 10 -3
10 -15 0 -12 4 -18 11 -15 5 4 8 12 6 18 -2 7 0 20 5 29 7 15 12 16 28 6 10
-7 17 -14 15 -18z m501 -67 c-3 -4 1 -11 8 -17 8 -6 17 -22 21 -36 5 -19 4
-21 -4 -10 -10 13 -11 13 -11 0 0 -13 -1 -13 -10 0 -14 21 -12 33 3 24 8 -5 8
-2 -2 9 -7 9 -19 17 -26 17 -20 0 -24 23 -6 38 9 7 12 12 6 11 -5 -1 -19 -1
-30 0 -19 2 -19 2 -2 12 12 7 16 18 12 32 -3 12 6 0 20 -26 15 -27 24 -51 21
-54z m-1803 -63 c3 -11 1 -18 -4 -14 -5 3 -9 12 -9 20 0 20 7 17 13 -6z m1082
-1 c22 -6 108 -40 192 -75 90 -38 212 -80 302 -104 259 -68 290 -89 315 -210
8 -41 25 -160 36 -265 12 -104 45 -314 75 -465 61 -310 89 -470 105 -614 7
-55 16 -111 22 -125 15 -41 21 -154 7 -146 -7 5 -9 1 -5 -12 7 -21 -16 -88
-26 -77 -4 3 -4 13 0 22 5 15 4 15 -11 3 -16 -12 -16 -16 -3 -30 14 -15 12
-23 -11 -71 -14 -30 -31 -58 -36 -62 -6 -3 -12 -13 -13 -22 -3 -23 -74 -136
-85 -136 -6 0 -7 -5 -3 -12 5 -7 3 -8 -6 -3 -8 5 -11 3 -8 -6 3 -10 -81 -158
-108 -188 -7 -7 -44 32 -44 46 0 7 -4 12 -8 11 -8 -3 -118 115 -161 172 -14
19 -35 44 -46 55 -33 32 -115 143 -115 154 0 6 -4 11 -10 11 -5 0 -14 10 -21
21 -8 17 -8 20 1 14 8 -5 11 -3 8 6 -3 8 -11 13 -17 12 -19 -5 -62 75 -57 107
4 31 -16 60 -29 40 -3 -5 -1 -10 5 -10 6 0 9 -4 6 -9 -4 -5 0 -12 6 -14 9 -4
9 -6 1 -6 -6 -1 -23 20 -37 46 -25 43 -25 47 -10 65 13 14 15 23 7 40 l-10 23
-13 -25 c-12 -22 -12 -24 3 -12 13 11 15 10 10 -7 -3 -12 -9 -21 -13 -21 -12
0 -43 86 -37 102 2 7 8 1 12 -14 4 -16 10 -28 14 -28 10 0 8 31 -3 48 -4 7 -2
12 4 12 7 0 9 13 5 38 -11 62 -16 73 -28 65 -7 -4 -17 -8 -23 -9 -14 -2 -27
84 -18 123 4 22 3 25 -6 13 -9 -12 -11 -8 -7 18 2 18 0 35 -5 38 -13 9 -9 51
7 64 12 10 15 10 15 -2 0 -8 -5 -19 -12 -26 -8 -8 -8 -15 1 -26 7 -8 10 -19 7
-24 -3 -6 0 -15 7 -21 11 -8 14 -5 14 19 0 16 -4 27 -9 24 -4 -3 -8 4 -8 16 0
12 4 19 9 16 5 -3 8 5 7 18 0 13 -4 22 -8 19 -5 -2 -8 0 -8 6 0 5 4 13 10 16
10 6 10 55 0 55 -12 0 -31 -43 -25 -59 3 -12 0 -21 -9 -24 -12 -5 -15 0 -12
22 2 15 7 34 11 42 8 12 6 12 -8 0 -15 -12 -17 -10 -17 18 0 18 5 31 13 31 6
0 4 5 -5 11 -20 11 -23 47 -9 95 9 31 1 59 -14 52 -4 -1 -10 8 -11 22 -4 25
-4 25 14 4 9 -11 20 -21 25 -22 46 -11 56 -15 52 -22 -3 -5 3 -6 14 -3 10 3
22 0 25 -6 4 -6 14 -11 22 -11 8 0 12 5 9 10 -4 6 -11 8 -16 5 -5 -4 -9 -1 -9
4 0 6 -5 11 -10 11 -6 0 -26 18 -46 40 -20 22 -40 40 -45 40 -5 0 5 -14 23
-31 21 -20 15 -17 -17 9 -58 46 -147 138 -163 169 -11 20 -10 21 48 20 54 -1
58 -2 49 -20 -6 -10 -8 -21 -5 -25 10 -9 16 4 19 36 1 21 5 27 13 21 8 -6 17
-5 27 5 8 8 17 12 21 9 3 -4 6 1 6 10 0 20 -22 35 -28 19 -3 -9 -10 -8 -25 3
-12 8 -28 15 -37 14 -11 0 -11 -2 -2 -6 10 -4 9 -9 -5 -20 -17 -14 -17 -14 0
-9 11 3 16 2 12 -4 -4 -6 -18 -8 -33 -4 -15 3 -44 6 -66 8 -23 1 -43 8 -51 19
-7 9 -17 17 -23 17 -6 0 -19 11 -30 25 -11 13 -21 22 -24 20 -3 -3 -15 6 -28
20 -13 14 -20 25 -17 25 4 0 -16 23 -44 52 -52 53 -79 67 -79 42 0 -8 6 -11
15 -8 8 4 15 1 15 -5 0 -6 -5 -11 -12 -11 -6 0 -8 -3 -4 -7 4 -5 11 -8 14 -7
8 0 42 -41 42 -50 0 -3 20 -24 45 -47 42 -39 58 -69 36 -69 -6 0 -10 -8 -9
-17 0 -10 -2 -27 -5 -38 -3 -11 -11 -42 -18 -70 -6 -27 -16 -56 -22 -62 -5 -7
-6 -13 -2 -13 4 0 2 -6 -4 -13 -6 -8 -10 -16 -8 -18 1 -3 -6 3 -15 14 -9 10
-14 25 -11 33 3 9 0 14 -8 12 -7 -2 -25 20 -41 47 -32 58 -34 67 -12 58 12 -4
15 -2 12 8 -3 8 -12 13 -20 11 -11 -2 -18 13 -27 55 -23 116 -6 238 46 334 31
58 59 72 116 59 75 -16 240 -77 367 -136 207 -94 230 -104 230 -100 0 7 -175
111 -182 108 -5 -1 -8 3 -8 9 0 5 -4 7 -10 4 -5 -3 -10 -2 -10 4 0 6 -7 8 -15
5 -8 -4 -17 1 -21 9 -3 9 -12 13 -21 10 -11 -4 -14 -2 -9 5 5 8 2 10 -8 6 -9
-3 -16 -1 -16 6 0 6 -4 9 -9 6 -5 -4 -11 -2 -13 2 -3 10 -171 64 -256 84 -41
9 -61 9 -85 0 -17 -6 -32 -10 -34 -9 -8 9 39 75 72 102 36 29 40 30 133 29 71
-1 140 -11 257 -36 209 -47 227 -50 220 -38 -4 6 10 10 32 11 21 1 43 2 48 4
6 1 21 3 35 5 14 1 -8 6 -48 11 -50 6 -110 24 -194 59 -67 27 -123 48 -126 46
-2 -3 -12 4 -23 15 -21 21 -45 26 -33 7 4 -6 3 -8 -4 -4 -6 3 -13 2 -17 -4 -3
-5 -11 -10 -17 -10 -6 0 -3 9 8 21 10 11 14 19 9 18 -6 -1 -21 2 -35 8 -44 18
-151 16 -173 -4 -10 -10 -21 -17 -23 -15 -3 1 -12 -2 -22 -7 -11 -7 -12 -11
-4 -11 7 0 10 -5 7 -10 -4 -6 -10 -8 -14 -6 -4 3 -36 -24 -71 -59 -41 -41 -56
-63 -44 -61 10 2 18 8 17 12 -2 12 74 84 81 76 3 -3 6 2 6 11 0 11 7 15 20 12
11 -2 18 -1 16 4 -3 4 9 5 26 3 22 -3 29 -1 24 7 -4 6 -12 9 -17 6 -5 -4 -17
-1 -26 5 -16 10 -15 10 4 5 16 -4 26 0 35 14 9 15 22 21 48 20 35 -1 35 -1 6
-8 -17 -3 -30 -10 -30 -16 -1 -5 -4 -9 -8 -8 -4 2 -5 -4 -2 -12 8 -21 60 -19
76 3 19 27 34 33 62 26 27 -6 26 -24 0 -24 -8 0 -12 5 -9 10 8 12 -5 13 -24 1
-10 -7 -5 -11 18 -16 17 -3 31 -11 31 -16 0 -6 4 -8 9 -5 5 3 11 -1 15 -9 3
-8 11 -15 18 -15 9 0 9 3 0 12 -15 15 -15 28 0 28 6 0 9 -3 5 -6 -7 -7 15 -33
24 -28 10 6 69 -17 69 -27 0 -10 -14 -12 -23 -3 -4 4 -22 8 -42 10 -19 2 -41
7 -48 11 -13 9 -17 9 -138 18 -104 8 -142 -5 -193 -69 -44 -54 -59 -83 -67
-131 l-6 -40 -2 48 c-1 31 3 47 12 48 10 0 10 2 0 6 -48 19 54 183 196 314
100 93 116 100 196 78z m288 5 c9 -9 -4 -35 -14 -28 -5 3 -9 12 -9 20 0 14 12
19 23 8z m501 -89 c29 -73 30 -75 17 -75 -11 0 -33 53 -35 83 -1 12 -7 21 -14
20 -7 -2 -9 4 -5 14 4 10 2 14 -5 9 -6 -3 -13 -2 -17 4 -3 5 3 10 13 10 15 0
26 -16 46 -65z m-410 39 c25 -9 19 -22 -9 -20 -25 1 -31 7 -18 19 8 8 8 8 27
1z m33 -38 c-2 -6 -9 -11 -14 -11 -6 0 -15 -4 -20 -9 -4 -5 5 -6 22 -3 31 5
65 -7 65 -23 0 -6 -5 -10 -11 -10 -5 0 -7 5 -3 11 4 7 0 9 -13 5 -29 -9 -66 7
-68 30 -1 13 6 19 22 20 14 1 22 -3 20 -10z m-509 -115 c-12 -20 -55 -37 -66
-26 -3 3 2 5 11 5 10 0 17 4 17 8 0 7 31 27 48 31 1 1 -3 -8 -10 -18z m156
-37 c4 -10 1 -14 -6 -12 -15 5 -23 28 -10 28 5 0 13 -7 16 -16z m-797 -16 c-3
-8 -6 -5 -6 6 -1 11 2 17 5 13 3 -3 4 -12 1 -19z m856 -4 c9 -4 17 -10 17 -15
0 -5 8 -6 18 -3 14 5 15 4 2 -5 -13 -10 -13 -12 0 -21 22 -15 30 -12 23 8 -6
15 -5 15 10 3 9 -7 17 -10 17 -7 0 4 9 2 20 -4 11 -6 17 -16 14 -22 -5 -8 -1
-9 12 -4 13 5 16 4 9 -3 -16 -16 -138 18 -131 36 4 9 -5 18 -24 25 -17 5 -30
14 -30 20 0 5 6 7 13 4 6 -3 20 -9 30 -12z m209 -95 c-9 -4 -21 -3 -26 1 -5 5
-15 6 -22 3 -9 -3 -12 0 -9 9 5 12 12 13 40 4 27 -8 31 -12 17 -17z m-266
-503 c8 -8 11 -17 6 -20 -4 -2 -13 4 -20 15 -14 22 -7 25 14 5z m1 -328 c-3
-7 -5 -2 -5 12 0 14 2 19 5 13 2 -7 2 -19 0 -25z m64 -185 c-12 -20 -14 -14
-5 12 4 9 9 14 11 11 3 -2 0 -13 -6 -23z m39 -370 c0 -13 -4 -23 -10 -23 -5 0
-10 4 -10 9 0 5 -3 24 -6 42 -5 32 -5 33 10 15 9 -11 16 -30 16 -43z m-814
-169 c-4 -9 -1 -23 5 -30 9 -11 8 -18 -2 -31 -12 -15 -12 -16 3 -10 9 3 21 0
26 -6 14 -17 9 -63 -6 -59 -17 3 -15 -14 3 -32 15 -14 11 -46 -5 -46 -8 0 -21
55 -26 105 -1 11 -4 28 -8 38 -15 41 -15 49 -6 68 13 23 25 25 16 3z m51 -336
c-3 -8 -6 -5 -6 6 -1 11 2 17 5 13 3 -3 4 -12 1 -19z"/>
<path d="M6289 6543 c-7 -19 -6 -28 2 -34 6 -4 9 -11 7 -15 -3 -5 -1 -18 3
-29 9 -18 9 -18 5 3 -2 12 -1 22 3 22 4 0 7 18 7 40 0 46 -12 52 -27 13z m12
-16 c-10 -9 -11 -8 -5 6 3 10 9 15 12 12 3 -3 0 -11 -7 -18z"/>
<path d="M6228 6469 c-3 -9 -2 -22 2 -30 13 -19 18 -8 10 21 -4 19 -7 21 -12
9z"/>
<path d="M7004 5635 c-4 -9 -13 -14 -20 -11 -11 4 -10 -1 2 -20 9 -13 19 -22
22 -19 3 2 11 0 17 -5 8 -7 18 -4 30 10 11 12 14 20 6 20 -7 0 -9 5 -5 12 4 7
3 8 -5 4 -6 -4 -9 -11 -7 -15 3 -4 -1 -8 -9 -8 -8 0 -15 5 -16 11 0 6 -5 2
-10 -9 l-9 -20 3 20 c1 11 8 20 15 20 15 0 17 18 3 23 -6 2 -14 -4 -17 -13z"/>
<path d="M7115 5570 c-3 -6 1 -7 9 -4 18 7 21 14 7 14 -6 0 -13 -4 -16 -10z"/>
<path d="M7770 5295 c0 -2 10 -10 23 -16 20 -11 21 -11 8 4 -13 16 -31 23 -31
12z"/>
<path d="M7486 5635 c-12 -9 -16 -21 -12 -32 6 -17 5 -17 -8 0 -12 16 -14 16
-20 2 -3 -9 -2 -13 4 -10 6 3 10 -2 10 -12 0 -15 2 -15 14 -3 8 8 16 22 18 30
2 8 10 20 18 27 21 17 -1 15 -24 -2z"/>
<path d="M7410 5590 c-13 -8 -12 -10 3 -10 9 0 17 5 17 10 0 12 -1 12 -20 0z"/>
<path d="M7425 5570 c-19 -8 -19 -9 3 -9 12 -1 22 4 22 9 0 6 -1 10 -2 9 -2 0
-12 -4 -23 -9z"/>
<path d="M6956 5682 c-3 -5 1 -9 9 -9 8 0 12 4 9 9 -3 4 -7 8 -9 8 -2 0 -6 -4
-9 -8z"/>
<path d="M7726 5223 c-8 -21 -1 -27 17 -16 12 6 13 10 2 20 -10 10 -15 9 -19
-4z"/>
<path d="M7745 5175 c1 -14 11 -32 21 -40 25 -18 31 -10 10 14 -12 13 -14 21
-6 26 13 8 3 25 -15 25 -8 0 -12 -9 -10 -25z"/>
<path d="M7715 5180 c-3 -5 -1 -10 4 -10 6 0 11 5 11 10 0 6 -2 10 -4 10 -3 0
-8 -4 -11 -10z"/>
<path d="M7845 5050 c3 -5 1 -10 -4 -10 -6 0 -11 -5 -11 -12 0 -6 3 -8 7 -5 3
4 13 1 22 -5 13 -10 14 -10 4 1 -6 7 -9 20 -6 27 3 8 0 14 -7 14 -6 0 -8 -4
-5 -10z"/>
<path d="M8351 4684 c0 -11 3 -14 6 -6 3 7 2 16 -1 19 -3 4 -6 -2 -5 -13z"/>
<path d="M6744 5171 c-9 -14 -11 -20 -3 -13 7 6 20 12 29 12 9 0 17 6 17 13 0
23 -26 15 -43 -12z"/>
<path d="M6980 5010 c-12 -8 -12 -10 3 -16 9 -3 15 -10 12 -14 -3 -5 5 -6 17
-2 l22 5 -22 8 c-28 11 -29 22 -1 14 15 -5 19 -4 15 4 -9 13 -26 14 -46 1z"/>
<path d="M6920 4960 c-8 -5 -10 -10 -5 -10 6 0 17 5 25 10 8 5 11 10 5 10 -5
0 -17 -5 -25 -10z"/>
<path d="M6100 5041 c0 -11 4 -22 9 -25 4 -3 6 6 3 19 -5 30 -12 33 -12 6z"/>
<path d="M6158 4683 c5 -21 7 -23 10 -9 2 10 0 22 -6 28 -6 6 -7 0 -4 -19z"/>
<path d="M6181 4554 c0 -11 3 -14 6 -6 3 7 2 16 -1 19 -3 4 -6 -2 -5 -13z"/>
<path d="M6633 2763 c3 -14 -3 -33 -15 -48 -13 -17 -15 -25 -7 -23 22 5 41 57
28 76 -9 14 -10 13 -6 -5z"/>
<path d="M7399 4973 c-1 -5 -1 -12 0 -17 1 -4 -4 -15 -11 -24 -10 -12 -10 -16
0 -19 6 -3 9 -10 5 -16 -3 -7 3 -3 15 7 16 14 19 23 12 31 -6 7 -8 20 -4 29 3
9 1 16 -5 16 -6 0 -12 -3 -12 -7z m8 -55 c-3 -8 -6 -5 -6 6 -1 11 2 17 5 13 3
-3 4 -12 1 -19z"/>
<path d="M7457 4916 c30 -37 68 -62 42 -29 -28 38 -53 63 -62 63 -5 0 4 -15
20 -34z"/>
<path d="M7480 4786 c0 -2 7 -7 16 -10 8 -3 12 -2 9 4 -6 10 -25 14 -25 6z"/>
<path d="M7910 4909 c0 -5 5 -7 10 -4 6 3 10 8 10 11 0 2 -4 4 -10 4 -5 0 -10
-5 -10 -11z"/>
<path d="M7110 4600 c-13 -8 -13 -10 2 -10 9 0 20 5 23 10 8 13 -5 13 -25 0z"/>
<path d="M7160 4590 c20 -13 33 -13 25 0 -3 6 -14 10 -23 10 -15 0 -15 -2 -2
-10z"/>
<path d="M6839 4269 c-9 -17 -8 -20 3 -16 7 2 12 10 10 17 -2 11 1 10 15 0 28
-22 29 -24 11 -17 -10 4 -18 3 -18 -2 0 -5 -9 -11 -20 -14 -14 -4 -20 -14 -20
-35 0 -17 4 -33 10 -37 5 -3 6 -13 3 -22 -6 -15 -7 -14 -15 3 -6 14 -7 11 -3
-9 4 -19 2 -26 -5 -22 -20 12 -10 -22 12 -41 15 -12 18 -13 10 -3 -13 18 -8
44 15 70 11 14 11 18 -2 29 -20 16 -21 64 -1 57 8 -3 17 -3 20 1 10 9 36 11
36 3 0 -5 10 -13 23 -19 12 -6 16 -11 9 -11 -7 -1 -25 7 -40 16 -25 16 -26 16
-14 1 8 -10 22 -20 33 -23 10 -4 19 -11 19 -16 0 -6 -6 -7 -12 -3 -7 3 4 -8
25 -26 20 -17 35 -35 32 -40 -12 -19 13 -18 30 0 10 11 23 20 29 20 8 0 8 -2
0 -8 -16 -10 -39 -57 -25 -47 7 4 23 -1 36 -9 14 -9 25 -13 25 -9 0 4 7 -3 16
-15 17 -24 74 -58 74 -43 0 5 -12 12 -27 16 -16 4 -22 10 -15 12 20 8 14 22
-8 16 -18 -5 -25 5 -21 30 1 4 -4 7 -11 6 -42 -5 -54 7 -35 37 3 6 4 14 0 18
-11 11 -41 7 -46 -6 -2 -7 -8 -10 -12 -5 -5 4 0 14 11 21 18 14 18 15 1 22
-18 7 -55 40 -98 91 -31 35 -45 38 -60 12z m118 -85 c-3 -4 1 -13 9 -21 8 -9
12 -18 9 -21 -5 -6 -34 27 -35 41 0 4 5 7 12 7 6 0 9 -3 5 -6z"/>
<path d="M6864 4136 c-4 -9 -4 -20 0 -23 3 -4 6 -1 6 5 0 6 8 9 18 6 10 -4 13
-2 7 3 -5 4 -13 12 -17 17 -4 5 -10 1 -14 -8z"/>
<path d="M7050 4110 c-7 -4 -5 -12 6 -21 15 -12 17 -12 9 0 -6 11 -4 13 9 8
10 -4 20 -7 22 -7 2 0 4 -9 4 -20 0 -11 5 -20 11 -20 5 0 8 4 4 9 -3 5 0 13 6
17 8 4 9 3 5 -4 -3 -6 3 -16 15 -23 17 -8 19 -13 8 -19 -9 -6 -6 -10 13 -15
15 -4 29 -14 31 -23 3 -12 6 -8 12 11 7 26 11 28 39 22 17 -4 40 -8 51 -10 11
-1 23 -3 28 -4 4 0 7 -8 7 -16 0 -20 15 -19 31 3 7 9 9 14 5 10 -5 -4 -14 -4
-20 1 -21 18 -140 40 -156 29 -12 -8 -12 -9 3 -4 11 3 15 2 12 -4 -7 -12 -35
-13 -35 -2 0 4 5 13 10 18 12 12 -114 74 -130 64z m115 -58 c-3 -3 -11 0 -18
7 -9 10 -8 11 6 5 10 -3 15 -9 12 -12z"/>
<path d="M6841 4094 c0 -11 3 -14 6 -6 3 7 2 16 -1 19 -3 4 -6 -2 -5 -13z"/>
<path d="M6870 4095 c-7 -9 -10 -18 -6 -22 3 -3 6 -1 6 6 0 7 5 9 11 5 6 -3 8
-15 6 -26 -5 -19 -4 -19 19 3 18 17 24 19 24 7 0 -9 7 -21 15 -28 8 -7 15 -21
15 -32 0 -17 3 -18 15 -8 8 7 15 18 14 24 0 6 -3 5 -6 -2 -3 -9 -14 1 -30 28
-18 30 -30 40 -43 37 -13 -3 -17 0 -13 9 7 19 -11 18 -27 -1z"/>
<path d="M7040 4045 c7 -8 17 -15 22 -15 5 0 3 7 -6 15 -8 8 -18 15 -22 15 -3
0 -1 -7 6 -15z"/>
<path d="M6823 4013 c1 -23 4 -40 8 -37 4 2 9 -3 13 -11 3 -8 11 -15 17 -15 7
0 3 10 -8 23 -12 12 -23 36 -26 52 -3 22 -4 18 -4 -12z"/>
<path d="M6900 4025 c-19 -23 -8 -25 14 -4 11 11 15 19 9 19 -6 0 -16 -7 -23
-15z"/>
<path d="M6850 4011 c0 -10 6 -23 13 -30 11 -8 13 -5 9 19 -5 33 -22 41 -22
11z"/>
<path d="M6930 4010 c0 -5 5 -10 10 -10 6 0 10 5 10 10 0 6 -4 10 -10 10 -5 0
-10 -4 -10 -10z"/>
<path d="M6923 3963 c-15 -32 -17 -55 -2 -30 14 23 32 22 24 -2 -3 -11 -2 -22
3 -25 6 -3 12 3 15 14 3 11 1 23 -4 26 -5 3 -9 14 -9 25 0 27 -13 24 -27 -8z"/>
<path d="M6858 3926 c-24 -18 -23 -24 5 -22 12 1 25 -3 29 -9 14 -19 8 -26
-13 -15 -11 7 -23 9 -27 6 -3 -3 0 -6 7 -6 7 0 9 -4 6 -10 -3 -6 1 -7 9 -4 11
4 16 0 16 -11 0 -10 -5 -13 -12 -9 -7 4 -8 3 -4 -4 11 -18 15 -15 27 14 7 19
6 35 -3 55 -15 33 -16 33 -40 15z m22 -6 c0 -5 -5 -10 -11 -10 -5 0 -7 5 -4
10 3 6 8 10 11 10 2 0 4 -4 4 -10z"/>
<path d="M7150 3928 c0 -4 4 -8 8 -8 5 0 14 -12 20 -26 7 -14 15 -24 20 -22 7
4 61 -48 61 -58 0 -2 7 -11 14 -19 22 -22 28 -6 10 29 -21 41 -23 43 -33 26
-6 -9 -10 -10 -10 -3 0 6 5 15 10 18 12 7 14 26 3 24 -24 -4 -40 3 -40 16 0 8
4 15 9 15 5 0 6 5 3 10 -10 16 -36 -16 -29 -37 5 -17 5 -17 -6 0 -6 10 -9 24
-6 32 3 9 -2 13 -15 12 -10 -1 -19 -5 -19 -9z m90 -58 c0 -5 -4 -10 -10 -10
-5 0 -10 5 -10 10 0 6 5 10 10 10 6 0 10 -4 10 -10z"/>
<path d="M6927 3886 c-3 -8 -3 -25 0 -38 4 -19 3 -20 -7 -8 -10 13 -11 13 -7
-1 3 -9 1 -21 -3 -25 -5 -5 -5 -15 1 -24 9 -12 10 -12 5 3 -3 10 0 20 9 23 9
4 13 19 12 45 -1 43 -2 45 -10 25z"/>
<path d="M7305 3644 c1 -39 7 -69 14 -77 11 -10 11 -8 2 10 -6 12 -11 26 -11
32 0 15 20 14 20 -1 1 -7 7 -26 15 -43 l13 -30 -5 40 c-3 22 -10 46 -16 52 -5
7 -6 24 -3 37 4 18 1 28 -12 35 -16 9 -18 4 -17 -55z"/>
<path d="M7445 3607 c0 -40 3 -54 9 -44 8 12 14 3 28 -36 23 -67 23 -70 -6
-23 -22 36 -44 37 -30 1 5 -13 8 -14 15 -3 7 10 9 9 9 -5 0 -10 9 -30 20 -45
11 -15 21 -44 22 -65 1 -20 4 -37 8 -37 4 0 6 -54 6 -120 -1 -66 -4 -120 -8
-120 -5 0 -8 -36 -8 -80 0 -57 -4 -80 -12 -80 -10 0 -9 -3 1 -9 11 -7 11 -9 0
-14 -8 -3 -4 -4 9 -4 22 1 32 17 11 17 -8 0 -8 4 0 14 6 7 9 20 5 29 -3 8 0
18 7 23 9 5 10 2 6 -9 -3 -9 -1 -19 5 -23 8 -5 9 3 5 26 -4 18 -7 43 -7 57 0
14 -4 21 -10 18 -5 -3 -10 -1 -10 4 0 6 5 11 10 11 6 0 10 46 10 118 0 124
-13 204 -59 354 -27 86 -27 87 -7 90 18 3 18 4 -4 9 -25 5 -26 4 -25 -54z"/>
<path d="M7320 3534 c0 -8 5 -12 10 -9 6 3 10 10 10 16 0 5 -4 9 -10 9 -5 0
-10 -7 -10 -16z"/>
<path d="M7446 3431 c9 -10 44 -11 44 -1 0 5 -11 9 -25 8 -13 -1 -22 -4 -19
-7z"/>
<path d="M7480 3390 c0 -19 3 -21 12 -12 9 9 9 15 0 24 -9 9 -12 7 -12 -12z"/>
<path d="M7444 3384 c3 -9 6 -20 6 -25 0 -5 4 -9 9 -9 4 0 6 11 3 25 -2 14 -9
25 -14 25 -6 0 -7 -7 -4 -16z"/>
<path d="M7351 3224 c0 -11 3 -14 6 -6 3 7 2 16 -1 19 -3 4 -6 -2 -5 -13z"/>
<path d="M7410 3129 c0 -11 5 -17 10 -14 6 3 10 13 10 21 0 8 -4 14 -10 14 -5
0 -10 -9 -10 -21z"/>
<path d="M7422 3070 c0 -14 2 -19 5 -12 2 6 2 18 0 25 -3 6 -5 1 -5 -13z"/>
<path d="M7541 2937 c-6 -16 -11 -33 -11 -38 0 -5 -5 -9 -11 -9 -5 0 -7 5 -3
12 4 7 3 8 -4 4 -6 -4 -20 -1 -31 6 -17 10 -23 10 -33 -1 -11 -11 -9 -12 8 -7
14 4 27 0 39 -14 15 -17 16 -24 6 -47 -9 -19 -9 -29 -1 -37 8 -8 9 -6 4 8 -5
14 -4 17 5 12 7 -5 11 -17 8 -27 -3 -11 -1 -19 4 -19 12 0 12 33 -1 46 -5 5
-7 19 -3 32 9 35 32 8 29 -33 -2 -19 1 -32 5 -29 5 3 9 0 9 -6 0 -6 4 -8 10
-5 6 3 7 -1 3 -10 -4 -12 -8 -13 -13 -5 -6 9 -9 9 -14 1 -4 -6 -12 -8 -18 -5
-7 4 -8 2 -4 -5 4 -6 11 -9 16 -6 5 3 16 -2 25 -11 13 -14 14 -19 3 -26 -10
-7 -8 -8 5 -4 11 3 17 0 17 -9 0 -22 18 -18 31 6 8 16 8 24 -1 33 -8 8 -9 6
-4 -8 5 -14 3 -17 -12 -14 -19 3 -34 48 -16 48 6 0 8 -9 5 -20 -3 -12 0 -20 6
-20 7 0 10 3 8 8 -3 4 1 21 7 37 11 26 10 35 -8 70 -12 22 -25 43 -29 46 -5 3
-8 9 -8 13 1 3 -2 5 -6 4 -13 -5 -12 -28 2 -28 16 0 28 -28 18 -42 -4 -7 -1
-8 7 -3 10 6 12 4 7 -9 -4 -10 -7 -20 -7 -22 0 -2 -6 -4 -14 -4 -10 0 -14 10
-12 35 2 19 0 32 -4 30 -4 -3 -13 1 -19 9 -8 10 -6 19 8 38 13 16 17 29 11 38
-7 11 -11 8 -19 -13z m72 -142 c-6 -17 -23 -20 -23 -5 0 6 5 10 11 10 5 0 7 5
3 12 -4 7 -3 8 4 4 6 -4 9 -13 5 -21z"/>
<path d="M7420 2938 c0 -4 14 -8 30 -8 17 0 30 2 30 4 0 2 -13 6 -30 8 -16 3
-30 1 -30 -4z"/>
<path d="M8250 2871 c-7 -15 -7 -21 0 -21 12 0 25 28 17 36 -3 3 -10 -4 -17
-15z"/>
<path d="M8207 2798 c-14 -24 -47 -72 -75 -107 -30 -38 -48 -71 -44 -80 4 -11
1 -13 -12 -8 -18 7 -71 -25 -59 -36 3 -4 -23 -5 -58 -4 -82 4 -158 40 -233
113 -31 30 -54 51 -51 48 2 -4 0 -16 -6 -26 -8 -15 -8 -23 1 -32 8 -8 10 -6 5
9 -7 20 -6 20 9 1 23 -29 3 -45 -24 -21 -18 17 -23 17 -31 5 -8 -12 -10 -10
-6 8 4 18 3 21 -7 13 -7 -6 -16 -8 -19 -4 -4 3 -7 2 -7 -3 0 -5 9 -15 20 -22
12 -7 18 -17 15 -23 -4 -5 -1 -8 7 -7 7 2 12 -3 10 -10 -1 -6 1 -11 5 -10 15
3 63 -22 63 -32 0 -14 -27 -12 -33 3 -4 8 -6 8 -6 0 -1 -15 58 -65 70 -57 5 3
9 -2 9 -11 0 -10 -5 -13 -12 -9 -9 5 -9 2 1 -9 18 -23 19 -22 16 16 -3 58 -37
106 -76 107 -9 0 -19 6 -22 14 -4 11 4 13 40 11 l45 -4 -26 24 c-14 13 -26 29
-26 35 0 7 19 -8 43 -32 24 -23 41 -47 38 -53 -2 -5 -6 -4 -9 3 -4 14 -32 16
-32 3 0 -5 9 -11 20 -14 13 -3 18 -11 14 -20 -7 -19 8 -28 26 -16 10 6 11 9 3
9 -7 0 -13 9 -13 20 0 11 5 20 11 20 5 0 8 -4 5 -9 -3 -5 10 -23 29 -40 32
-28 42 -31 103 -31 56 0 70 -3 82 -20 14 -20 50 -28 50 -11 0 5 9 11 21 14 16
4 18 3 9 -8 -7 -8 -7 -15 -1 -19 5 -4 12 -2 16 4 3 5 3 10 -1 10 -3 0 -1 7 6
15 7 9 10 25 6 41 -4 16 -3 23 3 19 7 -3 8 0 5 10 -4 9 -3 15 2 13 14 -4 51
20 57 36 4 10 -2 13 -19 12 -13 0 -24 -4 -24 -8 0 -4 -7 -5 -15 -2 -8 4 -15
10 -15 15 0 4 7 6 15 3 11 -5 14 -1 9 12 -5 18 -5 18 7 0 12 -19 12 -19 25 -1
8 11 14 13 14 6 0 -8 5 -7 17 4 13 14 14 18 3 25 -8 5 -18 6 -22 4 -4 -3 -8 2
-8 11 0 13 4 14 20 5 14 -8 20 -8 20 0 0 6 6 8 13 5 6 -4 2 3 -11 14 l-23 20
21 11 c14 7 19 17 16 28 -5 15 -4 15 8 -1 12 -16 14 -16 20 -2 4 11 2 14 -6 9
-8 -5 -9 -2 -5 9 14 36 -13 24 -36 -15z m-44 -119 c-9 -9 -12 -7 -10 9 1 14 5
18 11 12 7 -7 6 -14 -1 -21z m-513 -29 c0 -5 -5 -10 -11 -10 -5 0 -7 5 -4 10
3 6 8 10 11 10 2 0 4 -4 4 -10z m507 -24 c16 6 15 5 -2 -9 -15 -11 -22 -12
-27 -4 -5 8 -12 0 -19 -20 -6 -18 -15 -30 -21 -27 -5 3 -3 16 6 30 19 28 20
38 4 28 -7 -4 -8 -3 -4 4 5 9 13 9 26 2 10 -5 27 -7 37 -4z m-307 -55 c0 7 3
10 6 6 3 -3 3 -11 -1 -17 -5 -8 -13 -5 -26 9 -10 11 -19 24 -19 28 1 4 10 -3
20 -16 11 -13 20 -17 20 -10z m225 0 c-2 -12 3 -21 16 -24 10 -3 19 -11 19
-19 0 -8 -3 -9 -8 -3 -4 6 -14 11 -22 13 -8 2 -16 7 -18 12 -2 5 -11 7 -20 4
-15 -5 -15 -4 1 6 9 6 17 18 17 26 0 8 4 13 9 9 6 -3 8 -14 6 -24z m-168 -17
c-3 -3 -12 -4 -19 -1 -8 3 -5 6 6 6 11 1 17 -2 13 -5z m108 -12 c-3 -3 -11 0
-18 7 -9 10 -8 11 6 5 10 -3 15 -9 12 -12z m-267 -7 c3 -3 -4 -4 -16 -2 -12 2
-24 6 -28 10 -4 3 4 4 16 2 12 -2 25 -7 28 -10z m310 -13 c2 -7 -6 -12 -17
-12 -21 0 -27 11 -14 24 9 9 26 2 31 -12z"/>
<path d="M7634 2783 c3 -6 0 -13 -6 -16 -10 -3 -8 -10 6 -26 11 -11 14 -21 8
-21 -6 0 -9 -7 -5 -15 3 -9 8 -14 10 -11 3 2 4 6 2 8 -1 2 3 12 8 23 9 17 7
26 -9 45 -11 14 -17 20 -14 13z"/>
<path d="M7840 2485 c0 -13 4 -14 20 -5 11 6 20 13 20 15 0 3 -9 5 -20 5 -11
0 -20 -7 -20 -15z"/>
<path d="M7963 2473 c41 -4 47 -7 42 -23 -3 -10 -1 -21 5 -25 5 -3 10 -1 10 5
0 6 5 8 11 4 8 -4 5 -11 -8 -18 -11 -6 -18 -17 -15 -24 2 -9 -3 -13 -14 -12
-11 1 -25 2 -31 1 -15 -1 -18 -31 -3 -31 6 0 10 5 10 10 0 6 5 10 10 10 6 0
10 -7 10 -15 0 -8 -4 -15 -10 -15 -5 0 -10 -7 -10 -15 0 -23 -18 -18 -36 10
-9 14 -20 22 -25 19 -5 -3 -9 0 -9 6 0 6 10 15 23 20 21 8 21 9 -6 9 -18 1
-26 -3 -22 -10 4 -6 0 -9 -11 -7 -24 4 -24 -19 -1 -52 9 -13 17 -21 17 -16 0
5 7 3 15 -4 8 -7 13 -16 10 -20 -3 -4 1 -13 9 -19 11 -9 13 -7 12 10 0 12 5
24 12 26 8 3 10 -1 5 -14 -3 -10 -3 -15 1 -11 4 3 9 13 10 22 1 9 12 26 25 39
12 14 21 28 20 33 -4 25 3 42 18 40 10 0 18 6 18 14 2 26 17 50 28 43 6 -3 7
-1 3 5 -5 8 -13 9 -25 2 -10 -5 -22 -6 -26 -2 -5 4 -5 2 -2 -4 4 -7 1 -14 -7
-17 -8 -3 -13 1 -12 11 1 14 -9 17 -49 18 l-50 1 48 -4z m-79 -125 c-5 -7 0
-9 14 -6 12 4 20 3 18 -1 -3 -4 4 -13 14 -21 10 -8 16 -18 13 -23 -3 -4 -12 1
-20 12 -8 12 -18 19 -23 16 -5 -3 -12 0 -17 7 -11 19 -13 39 -2 32 5 -3 6 -10
3 -16z"/>
<path d="M7770 2456 c0 -6 17 -31 38 -55 26 -30 39 -39 39 -28 0 9 -3 15 -5
12 -7 -7 -32 15 -32 27 0 6 5 6 14 -1 11 -9 13 -5 12 21 -1 29 -5 33 -34 34
-17 1 -32 -4 -32 -10z m43 -10 c3 -8 3 -17 0 -20 -9 -9 -34 15 -27 25 8 13 21
11 27 -5z"/>
<path d="M7418 4523 c6 -2 18 -2 25 0 6 3 1 5 -13 5 -14 0 -19 -2 -12 -5z"/>
<path d="M6556 2897 c3 -10 9 -15 12 -12 3 3 0 11 -7 18 -10 9 -11 8 -5 -6z"/>
<path d="M6578 2813 c7 -3 16 -2 19 1 4 3 -2 6 -13 5 -11 0 -14 -3 -6 -6z"/>
</g>
</svg>
